<svg width="19" height="19" viewBox="0 0 19 19" fill="none" xmlns="http://www.w3.org/2000/svg">
<path d="M9.19922 0.100342C14.225 0.100342 18.2988 4.17416 18.2988 9.19995C18.2988 14.2257 14.225 18.2996 9.19922 18.2996C4.17343 18.2996 0.0996094 14.2257 0.0996094 9.19995C0.0996094 4.17416 4.17343 0.100342 9.19922 0.100342Z" stroke="#56687A" stroke-width="0.2"/>
<path d="M9.19922 9.99284L6.93084 7.3464C6.76347 7.15114 6.49211 7.15114 6.32474 7.3464C6.15738 7.54166 6.15738 7.85824 6.32474 8.0535L8.89617 11.0535C9.06354 11.2488 9.3349 11.2488 9.50226 11.0535L12.0737 8.0535C12.2411 7.85824 12.2411 7.54166 12.0737 7.3464C11.9063 7.15114 11.635 7.15114 11.4676 7.3464L9.19922 9.99284Z" fill="#56687A"/>
<mask id="mask0_412_16630" style="mask-type:luminance" maskUnits="userSpaceOnUse" x="6" y="7" width="7" height="5">
<path d="M9.19922 9.99284L6.93084 7.3464C6.76347 7.15114 6.49211 7.15114 6.32474 7.3464C6.15738 7.54166 6.15738 7.85824 6.32474 8.0535L8.89617 11.0535C9.06354 11.2488 9.3349 11.2488 9.50226 11.0535L12.0737 8.0535C12.2411 7.85824 12.2411 7.54166 12.0737 7.3464C11.9063 7.15114 11.635 7.15114 11.4676 7.3464L9.19922 9.99284Z" fill="white"/>
</mask>
<g mask="url(#mask0_412_16630)">
</g>
</svg>
