<svg width="16" height="16" viewBox="0 0 16 16" fill="none" xmlns="http://www.w3.org/2000/svg">
<path d="M7.29424 15.0999C6.97424 15.0999 6.66091 15.0199 6.36758 14.8599C5.78091 14.5332 5.42758 13.9399 5.42758 13.2732V9.7399C5.42758 9.40657 5.20758 8.90657 5.00091 8.65324L2.50758 6.01324C2.08758 5.59324 1.76758 4.87324 1.76758 4.33324V2.7999C1.76758 1.73324 2.57424 0.899902 3.60091 0.899902H12.4009C13.4142 0.899902 14.2342 1.7199 14.2342 2.73324V4.1999C14.2342 4.8999 13.8142 5.69324 13.4209 6.08657L10.5342 8.6399C10.2542 8.87324 10.0342 9.38657 10.0342 9.7999V12.6666C10.0342 13.2599 9.66091 13.9466 9.19424 14.2266L8.27425 14.8199C7.97425 15.0066 7.63424 15.0999 7.29424 15.0999ZM3.60091 1.8999C3.13424 1.8999 2.76758 2.29324 2.76758 2.7999V4.33324C2.76758 4.5799 2.96758 5.0599 3.22091 5.31324L5.76091 7.98657C6.10091 8.40657 6.43424 9.10657 6.43424 9.73324V13.2666C6.43424 13.6999 6.73424 13.9132 6.86091 13.9799C7.14091 14.1332 7.48091 14.1332 7.74091 13.9732L8.66758 13.3799C8.85425 13.2666 9.04091 12.9066 9.04091 12.6666V9.7999C9.04091 9.08657 9.38758 8.2999 9.88758 7.8799L12.7409 5.35324C12.9676 5.12657 13.2409 4.58657 13.2409 4.19324V2.73324C13.2409 2.27324 12.8676 1.8999 12.4076 1.8999H3.60091V1.8999Z" fill="#0E2741"/>
<path d="M4.00044 7.16676C3.9071 7.16676 3.82044 7.14009 3.73377 7.09343C3.50044 6.94676 3.4271 6.63343 3.57377 6.40009L6.86044 1.13343C7.0071 0.900094 7.31377 0.826761 7.5471 0.973428C7.78044 1.12009 7.85377 1.42676 7.7071 1.66009L4.42044 6.92676C4.3271 7.08009 4.1671 7.16676 4.00044 7.16676Z" fill="#0E2741"/>
</svg>
