<svg width="16" height="16" viewBox="0 0 16 16" fill="none" xmlns="http://www.w3.org/2000/svg">
<path d="M7.33398 13.8333C3.74732 13.8333 0.833984 10.9199 0.833984 7.33325C0.833984 3.74659 3.74732 0.833252 7.33398 0.833252C10.9207 0.833252 13.834 3.74659 13.834 7.33325C13.834 10.9199 10.9207 13.8333 7.33398 13.8333ZM7.33398 1.83325C4.30065 1.83325 1.83398 4.29992 1.83398 7.33325C1.83398 10.3666 4.30065 12.8333 7.33398 12.8333C10.3673 12.8333 12.834 10.3666 12.834 7.33325C12.834 4.29992 10.3673 1.83325 7.33398 1.83325Z" fill="#56687A"/>
<path d="M13.4401 15.1933C13.3867 15.1933 13.3334 15.1867 13.2867 15.18C12.9734 15.14 12.4067 14.9267 12.0867 13.9733C11.9201 13.4733 11.9801 12.9733 12.2534 12.5933C12.5267 12.2133 12.9867 12 13.5134 12C14.1934 12 14.7267 12.26 14.9667 12.72C15.2067 13.18 15.1401 13.7667 14.7601 14.3333C14.2867 15.0467 13.7734 15.1933 13.4401 15.1933ZM13.0401 13.66C13.1534 14.0067 13.3134 14.18 13.4201 14.1933C13.5267 14.2067 13.7267 14.08 13.9334 13.78C14.1267 13.4933 14.1401 13.2867 14.0934 13.1933C14.0467 13.1 13.8601 13 13.5134 13C13.3067 13 13.1534 13.0667 13.0667 13.18C12.9867 13.2933 12.9734 13.4667 13.0401 13.66Z" fill="#56687A"/>
</svg>
