<svg width="20" height="20" viewBox="0 0 20 20" fill="none" xmlns="http://www.w3.org/2000/svg">
<path d="M12.5007 18.9584H7.50065C3.82565 18.9584 2.70898 17.8417 2.70898 14.1667V5.83341C2.70898 2.15841 3.82565 1.04175 7.50065 1.04175H12.5007C16.1757 1.04175 17.2923 2.15841 17.2923 5.83341V14.1667C17.2923 17.8417 16.1757 18.9584 12.5007 18.9584ZM7.50065 2.29175C4.51732 2.29175 3.95898 2.85841 3.95898 5.83341V14.1667C3.95898 17.1417 4.51732 17.7084 7.50065 17.7084H12.5007C15.484 17.7084 16.0423 17.1417 16.0423 14.1667V5.83341C16.0423 2.85841 15.484 2.29175 12.5007 2.29175H7.50065Z" fill="#3E5267"/>
<path d="M11.6673 5.20825H8.33398C7.99232 5.20825 7.70898 4.92492 7.70898 4.58325C7.70898 4.24159 7.99232 3.95825 8.33398 3.95825H11.6673C12.009 3.95825 12.2923 4.24159 12.2923 4.58325C12.2923 4.92492 12.009 5.20825 11.6673 5.20825Z" fill="#3E5267"/>
<path d="M10.0007 16.5499C8.94232 16.5499 8.08398 15.6916 8.08398 14.6332C8.08398 13.5749 8.94232 12.7166 10.0007 12.7166C11.059 12.7166 11.9173 13.5749 11.9173 14.6332C11.9173 15.6916 11.059 16.5499 10.0007 16.5499ZM10.0007 13.9582C9.63398 13.9582 9.33398 14.2582 9.33398 14.6249C9.33398 14.9916 9.63398 15.2916 10.0007 15.2916C10.3673 15.2916 10.6673 14.9916 10.6673 14.6249C10.6673 14.2582 10.3673 13.9582 10.0007 13.9582Z" fill="#3E5267"/>
</svg>
